<?xml version="1.0" encoding="utf-8"?>
<!-- Generator: Adobe Illustrator 24.2.3, SVG Export Plug-In . SVG Version: 6.00 Build 0)  -->
<svg version="1.1" id="Layer_1" xmlns="http://www.w3.org/2000/svg" xmlns:xlink="http://www.w3.org/1999/xlink" x="0px" y="0px"
	 viewBox="0 0 823.5 358.5" style="enable-background:new 0 0 823.5 358.5;" xml:space="preserve">
<style type="text/css">
	.st0{fill:#EFA157;}
</style>
<g>
	<g id="Layer_1-3">
		<path class="st0" d="M364.1,293.2V1.1c1.1,0,2.2-0.3,3.3-0.4c11-0.6,14.1-0.8,25.3-0.6c7.4,0.1,22.9,0.4,30.7,0.6
			c7.2,0.2,14.9,0.1,22.5,0c7.8-0.1,15.7-0.2,23.2,0.1c21.5,0,42.6,2.2,61.6,13c35,19.9,40.7,67.8,31.7,103.6
			c-3.1,12.5-8.5,25.8-19,33.9c5.9,2.5,11.1,6.3,15.4,11c11.8,13.7,13.9,33.9,14.2,51.2c0.2,15-1.4,28.4-7.4,42.3
			c-11,25.4-35.8,35.5-62.2,37.6L364.1,293.2L364.1,293.2z M410.7,119h85.4c3.7,0,11.6-4.4,14.4-6.9c10-8.8,11.2-25.9,7.1-37.9
			C511.1,55.3,493,55.5,476,54.7c-18-0.9-36.1-0.8-54-0.4c-3.7,0.1-7.5-0.1-11.3,0L410.7,119L410.7,119z M411.9,243.2h88.9
			c1.9,0,8.1-2.8,9.9-3.9c14.9-8.8,17.2-29.6,13.4-45.1c-6-24.4-25.5-24.1-46.6-25.2c-17.5-0.8-35.3-0.9-52.9-0.4
			c-4.3,0.1-8.6-0.4-12.8,0.4L411.9,243.2L411.9,243.2z"/>
		<path class="st0" d="M575.5,23.4c1.2-10.4,12-20,22.3-21.1c10.9-1.1,25,0.1,36.3,0c40.1-0.4,80.2-1.2,120.2-1.6
			c22.7-0.2,45.5-0.1,68.2-0.4c0.3,0,0.6,2.5,0.6,3c0.5,6.2,0.7,20.8-0.2,26.6c-1.6,10.1-11.3,21-21.7,22.1
			c-15.5,1.5-34.2,0.5-50.1,0.8c-6,0.1-12-0.1-18,0v236.9h-34.5c-4.7,0-12.8-4.7-16-8.1c-3.1-3.2-8.7-12.9-8.7-17.4V53.5l-98.6,0.8
			L575.5,23.4z"/>
		<path class="st0" d="M355.1,292.8h-46.3c-4.9,0-15.8-6.2-19.9-9.3c-22.1-16.8-26.5-42.6-34.2-67.5
			c-14.2-45.2-29.9-89.9-44.5-134.9l-0.6-0.4l-23.7,76.1l-1.4-0.4l-38.8-37.3c-6.5-7.5-10.3-17.5-7.2-27.3L172.8,1H213
			c17.1,1.1,32.3,12.9,41.5,26.7s13.1,30.3,18.7,45.6c8.3,22.6,17.4,45,25.8,67.6C317.9,191.5,336.4,242.2,355.1,292.8L355.1,292.8z
			"/>
	</g>
	<g>
		<path class="st0" d="M89.9,168.8H60.1c-2.8,0-5-2.2-5-5v-2.6c0-2.8,2.2-5,5-5h29.8c2.8,0,5,2.2,5,5v2.6
			C94.9,166.5,92.7,168.8,89.9,168.8z"/>
		<path class="st0" d="M119.1,228.7H84.5c-2.8,0-5-2.2-5-5V215c0-2.8,2.2-5,5-5h29.6c2.8,0,5,2.2,5,5V228.7z"/>
		<path class="st0" d="M114.1,249.8h-9.6c-2.8,0-5-2.2-5-5v-5.6c0-2.8,2.2-5,5-5h9.6c2.8,0,5,2.2,5,5v5.6
			C119.1,247.5,116.9,249.8,114.1,249.8z"/>
		<path class="st0" d="M119.2,161.2v43.7h-14.9c-2.8,0-5-2.2-5-5v-38.7c0-2.8,2.2-5,5-5h9.9C117,156.2,119.2,158.4,119.2,161.2z"/>
		<path class="st0" d="M119.1,136H86.5c-2.8,0-5-2.2-5-5v-16.9c0-2.8,2.2-5,5-5h27.6c2.8,0,5,2.2,5,5V136z"/>
		<path class="st0" d="M89.9,136H73c-2.8,0-5-2.2-5-5v-5.6c0-2.8,2.2-5,5-5h16.9c2.8,0,5,2.2,5,5v5.6C94.9,133.8,92.7,136,89.9,136z
			"/>
		<path class="st0" d="M119.4,151.1H86.5c-2.8,0-5-2.2-5-5l0,0c0-2.8,2.2-5,5-5h27.9c2.8,0,5,2.2,5,5V151.1z"/>
		<path class="st0" d="M78.9,151.1H65.7c-2.8,0-5-2.2-5-5l0,0c0-2.8,2.2-5,5-5H74c2.8,0,5,2.2,5,5L78.9,151.1z"/>
		<path class="st0" d="M94.9,204.9H83.7c-2.8,0-5-2.2-5-5v-10.7c0-2.8,2.2-5,5-5h6.2c2.8,0,5,2.2,5,5L94.9,204.9z"/>
		<path class="st0" d="M119,105.7h-10c-2.8,0-5-2.2-5-5v-3.3c0-2.8,2.2-5,5-5h5c2.8,0,5,2.2,5,5V105.7z"/>
		<path class="st0" d="M58.9,180.7H47.7c-2.8,0-5-2.2-5-5l0,0c0-2.8,2.2-5,5-5h6.2c2.8,0,5,2.2,5,5V180.7z"/>
		<path class="st0" d="M40.1,222H24.6c-2.8,0-5-2.2-5-5v-2c0-2.8,2.2-5,5-5h10.6c2.8,0,5,2.2,5,5v7H40.1z"/>
		<path class="st0" d="M16.6,226.6H5.2c-2.8,0-5.2-2.3-5.2-5.1c0,0,0-0.1,0-0.1v-6.2c0-2.8,2.3-5.2,5.1-5.2c0,0,0,0,0.1,0h6.2
			c2.8,0,5.2,2.3,5.2,5.1c0,0,0,0.1,0,0.1L16.6,226.6z"/>
		<path class="st0" d="M63.4,259.7h-16c-2.8,0-5.2-2.3-5.2-5.1c0,0,0-0.1,0-0.1v-5.8c0-2.8,2.3-5.2,5.1-5.2c0,0,0.1,0,0.1,0h16
			c2.8,0,5.2,2.3,5.2,5.1c0,0,0,0.1,0,0.1v5.8C68.6,257.3,66.3,259.7,63.4,259.7C63.5,259.7,63.4,259.7,63.4,259.7z"/>
		<path class="st0" d="M74.3,239.3H24.6c-2.8,0-5-2.2-5-5v-2.7c0-2.8,2.2-5,5-5h44.7c2.8,0,5,2.2,5,5V239.3z"/>
		<path class="st0" d="M94.9,180.3H73c-2.8,0-5-2.2-5-5v-11.6c0-2.8,2.2-5,5-5h16.9c2.8,0,5,2.2,5,5V180.3z"/>
		<path class="st0" d="M141.8,357.9H98.2c-2.8,0-5-2.2-5-5v-16.3c0-2.8,2.2-5,5-5h38.6c2.8,0,5,2.2,5,5L141.8,357.9z"/>
		<path class="st0" d="M74.3,204.9H24.6c-2.8,0-5-2.2-5-5v-10.6c0-2.8,2.2-5,5-5h44.7c2.8,0,5,2.2,5,5V204.9z"/>
		<path class="st0" d="M74.3,222H47.7c-2.8,0-5-2.2-5-5v-2c0-2.8,2.2-5,5-5h21.6c2.8,0,5,2.2,5,5V222z"/>
		<path class="st0" d="M124.1,333L124.1,333c-0.4,0-0.7-0.3-0.7-0.7c0,0,0,0,0,0V175.5c0-0.4,0.3-0.7,0.7-0.7c0,0,0,0,0,0l0,0
			c0.4,0,0.7,0.3,0.7,0.7c0,0,0,0,0,0v156.8C124.8,332.7,124.5,333,124.1,333C124.1,333,124.1,333,124.1,333z"/>
		<path class="st0" d="M130.1,333L130.1,333c-0.4,0-0.7-0.3-0.7-0.7c0,0,0,0,0,0V239c0-0.4,0.3-0.7,0.7-0.7c0,0,0,0,0,0l0,0
			c0.4,0,0.7,0.3,0.7,0.7c0,0,0,0,0,0v93.3C130.8,332.7,130.5,333,130.1,333C130.1,333,130.1,333,130.1,333z"/>
		<path class="st0" d="M129.6,239.4L129.6,239.4c-0.3-0.2-0.4-0.6-0.2-0.9c0,0,0,0,0.1-0.1l30-39.7c0.2-0.3,0.6-0.4,0.9-0.2
			c0,0,0,0,0.1,0.1l0,0c0.3,0.2,0.4,0.6,0.2,0.9c0,0,0,0-0.1,0.1l-30,39.7C130.4,239.6,130,239.6,129.6,239.4z"/>
		<path class="st0" d="M161.2,229.3L161.2,229.3c-0.3-0.2-0.4-0.6-0.2-0.9c0,0,0,0,0.1-0.1l10.8-14.2c0.2-0.3,0.6-0.4,0.9-0.2
			c0,0,0,0,0.1,0.1l0,0c0.3,0.2,0.4,0.6,0.2,0.9c0,0,0,0-0.1,0.1l-10.8,14.2C162,229.5,161.6,229.5,161.2,229.3z"/>
		<path class="st0" d="M190.7,226.1L190.7,226.1c-0.3-0.2-0.4-0.6-0.2-0.9c0,0,0,0,0.1-0.1l7-9.3c0.2-0.3,0.6-0.4,0.9-0.2
			c0,0,0,0,0.1,0.1l0,0c0.3,0.2,0.4,0.6,0.2,0.9c0,0,0,0-0.1,0.1l-7,9.3C191.4,226.2,191,226.2,190.7,226.1z"/>
		<path class="st0" d="M195,240.2L195,240.2c-0.3-0.2-0.4-0.6-0.2-0.9c0,0,0,0,0.1-0.1l10.8-14.2c0.2-0.3,0.6-0.4,0.9-0.2
			c0,0,0,0,0.1,0.1l0,0c0.3,0.2,0.4,0.6,0.2,0.9c0,0,0,0-0.1,0.1L196,240C195.8,240.3,195.3,240.4,195,240.2z"/>
		<path class="st0" d="M199.7,248.6L199.7,248.6c-0.3-0.2-0.4-0.6-0.2-0.9c0,0,0,0,0.1-0.1l10.8-14.2c0.2-0.3,0.6-0.4,0.9-0.2
			c0,0,0,0,0.1,0.1l0,0c0.3,0.2,0.4,0.6,0.2,0.9c0,0,0,0-0.1,0.1l-10.8,14.2C200.4,248.7,200,248.8,199.7,248.6z"/>
		<path class="st0" d="M123.7,231.1L123.7,231.1c-0.3-0.2-0.4-0.6-0.2-0.9c0,0,0,0,0.1-0.1l18.4-24.3c0.2-0.3,0.6-0.4,0.9-0.2
			c0,0,0,0,0.1,0.1l0,0c0.3,0.2,0.4,0.6,0.2,0.9c0,0,0,0-0.1,0.1L124.7,231C124.4,231.2,124,231.3,123.7,231.1z"/>
		<path class="st0" d="M148.8,198.3L148.8,198.3c-0.3-0.2-0.4-0.6-0.2-0.9c0,0,0,0,0.1-0.1l22.5-29.7c0.2-0.3,0.6-0.4,0.9-0.2
			c0,0,0,0,0.1,0.1l0,0c0.3,0.2,0.4,0.6,0.2,0.9c0,0,0,0-0.1,0.1l-22.5,29.7C149.5,198.4,149.1,198.5,148.8,198.3z"/>
		<path class="st0" d="M171.2,183L171.2,183c-0.3-0.2-0.4-0.6-0.2-0.9c0,0,0,0,0.1-0.1l13.2-17.5c0.2-0.3,0.6-0.4,0.9-0.2
			c0,0,0,0,0.1,0.1l0,0c0.3,0.2,0.4,0.6,0.2,0.9c0,0,0,0-0.1,0.1l-13.2,17.5C172,183.2,171.6,183.2,171.2,183z"/>
		<path class="st0" d="M172.1,182.9L172.1,182.9c-0.3,0.2-0.7,0.2-1-0.1l-5.2-6.8c-0.2-0.3-0.2-0.7,0.1-1l0,0c0.3-0.2,0.7-0.2,1,0.1
			l5.2,6.8C172.5,182.2,172.4,182.6,172.1,182.9C172.1,182.8,172.1,182.9,172.1,182.9z"/>
		<path class="st0" d="M141.6,208.1L141.6,208.1c-0.3,0.2-0.7,0.2-1-0.1l-4.9-6.5c-0.2-0.3-0.2-0.7,0.1-1l0,0c0.3-0.2,0.7-0.2,1,0.1
			l4.9,6.5C141.9,207.4,141.9,207.8,141.6,208.1z"/>
		<path class="st0" d="M142.9,173.6L142.9,173.6c-0.3,0.2-0.7,0.2-1-0.1L130,157.7c-0.2-0.3-0.2-0.7,0.1-1l0,0
			c0.3-0.2,0.7-0.2,1,0.1l11.9,15.8C143.3,172.9,143.2,173.3,142.9,173.6C142.9,173.5,142.9,173.6,142.9,173.6z"/>
		<path class="st0" d="M142.9,162.5L142.9,162.5c-0.3,0.2-0.7,0.2-1-0.1l-17.4-23c-0.2-0.3-0.2-0.7,0.1-1l0,0c0.3-0.2,0.7-0.2,1,0.1
			l17.4,23C143.3,161.8,143.2,162.2,142.9,162.5C142.9,162.5,142.9,162.5,142.9,162.5z"/>
		<path class="st0" d="M190.9,200.1L190.9,200.1c-0.3,0.2-0.7,0.2-1-0.1l-4.4-5.9c-0.2-0.3-0.2-0.7,0.1-1l0,0c0.3-0.2,0.7-0.2,1,0.1
			l4.4,5.9C191.3,199.4,191.2,199.8,190.9,200.1C190.9,200,190.9,200.1,190.9,200.1z"/>
		<path class="st0" d="M195.7,240L195.7,240c-0.3,0.2-0.7,0.2-1-0.1l-4.4-5.9c-0.2-0.3-0.2-0.7,0.1-1l0,0c0.3-0.2,0.7-0.2,1,0.1
			l4.4,5.9c0.3,0.2,0.3,0.6,0.1,0.9C195.8,239.9,195.8,240,195.7,240z"/>
		<path class="st0" d="M190.2,200.2L190.2,200.2c-0.3-0.2-0.4-0.6-0.2-0.9c0,0,0,0,0.1-0.1l4.9-6.4c0.2-0.3,0.6-0.4,0.9-0.2
			c0,0,0,0,0.1,0.1l0,0c0.3,0.2,0.4,0.6,0.2,0.9c0,0,0,0-0.1,0.1l-4.9,6.4C191,200.4,190.6,200.4,190.2,200.2z"/>
		<path class="st0" d="M142,169.4L142,169.4c-0.3-0.2-0.4-0.6-0.2-0.9c0,0,0,0,0.1-0.1l15.4-20.4c0.2-0.3,0.6-0.4,0.9-0.2
			c0,0,0,0,0.1,0.1l0,0c0.3,0.2,0.4,0.6,0.2,0.9c0,0,0,0-0.1,0.1l-15.3,20.4C142.8,169.6,142.3,169.6,142,169.4z"/>
		<path class="st0" d="M130.1,138.2L130.1,138.2c-0.3-0.2-0.4-0.6-0.2-0.9c0,0,0,0,0.1-0.1l4.5-5.9c0.2-0.3,0.6-0.4,0.9-0.2
			c0,0,0,0,0.1,0.1l0,0c0.3,0.2,0.4,0.6,0.2,0.9c0,0,0,0-0.1,0.1l-4.5,5.9C130.8,138.4,130.4,138.4,130.1,138.2z"/>
		<path class="st0" d="M138.6,157.6L138.6,157.6c-0.3-0.2-0.4-0.6-0.2-0.9c0,0,0,0,0.1-0.1l4.5-5.9c0.2-0.3,0.6-0.4,0.9-0.2
			c0,0,0,0,0.1,0.1l0,0c0.3,0.2,0.4,0.6,0.2,0.9c0,0,0,0-0.1,0.1l-4.5,5.9C139.3,157.7,138.9,157.8,138.6,157.6z"/>
		<path class="st0" d="M148.9,182.2L148.9,182.2c0.4,0,0.7,0.3,0.7,0.7c0,0,0,0,0,0v31c0,0.4-0.3,0.7-0.7,0.7c0,0,0,0,0,0l0,0
			c-0.4,0-0.7-0.3-0.7-0.7c0,0,0,0,0,0v-31C148.2,182.5,148.5,182.2,148.9,182.2C148.9,182.2,148.9,182.2,148.9,182.2z"/>
		<path class="st0" d="M190.9,211.7L190.9,211.7c0.4,0,0.7,0.3,0.7,0.7c0,0,0,0,0,0v21.1c0,0.4-0.3,0.7-0.7,0.7c0,0,0,0,0,0l0,0
			c-0.4,0-0.7-0.3-0.7-0.7c0,0,0,0,0,0v-21.1C190.1,212,190.5,211.7,190.9,211.7z"/>
		<path class="st0" d="M142.5,161.1L142.5,161.1c0.4,0,0.7,0.3,0.7,0.7c0,0,0,0,0,0v44.3c0,0.4-0.3,0.7-0.7,0.7c0,0,0,0,0,0l0,0
			c-0.4,0-0.7-0.3-0.7-0.7c0,0,0,0,0,0v-44.3C141.8,161.4,142.1,161.1,142.5,161.1C142.5,161.1,142.5,161.1,142.5,161.1z"/>
		<path class="st0" d="M136.1,182.2L136.1,182.2c0.4,0,0.7,0.3,0.7,0.7c0,0,0,0,0,0v18c0,0.4-0.3,0.7-0.7,0.7c0,0,0,0,0,0l0,0
			c-0.4,0-0.7-0.3-0.7-0.7c0,0,0,0,0,0v-18C135.3,182.5,135.7,182.2,136.1,182.2z"/>
		<path class="st0" d="M125,116.2L125,116.2c0.4,0,0.7,0.3,0.7,0.7c0,0,0,0,0,0v21.8c0,0.4-0.3,0.7-0.7,0.7c0,0,0,0,0,0l0,0
			c-0.4,0-0.7-0.3-0.7-0.7c0,0,0,0,0,0v-21.8C124.2,116.5,124.6,116.2,125,116.2z"/>
		<path class="st0" d="M130.5,123.3L130.5,123.3c0.4,0,0.7,0.3,0.7,0.7c0,0,0,0,0,0v21.8c0,0.4-0.3,0.7-0.7,0.7c0,0,0,0,0,0l0,0
			c-0.4,0-0.7-0.3-0.7-0.7c0,0,0,0,0,0V124C129.8,123.6,130.1,123.3,130.5,123.3C130.5,123.3,130.5,123.3,130.5,123.3z"/>
		<path class="st0" d="M143.6,142.7L143.6,142.7c0.4,0,0.7,0.3,0.7,0.7c0,0,0,0,0,0v7.5c0,0.4-0.3,0.7-0.7,0.7c0,0,0,0,0,0l0,0
			c-0.4,0-0.7-0.3-0.7-0.7c0,0,0,0,0,0v-7.5C142.8,143,143.2,142.7,143.6,142.7z"/>
		<path class="st0" d="M191.4,199.6L191.4,199.6c0,0.4-0.3,0.7-0.7,0.7c0,0,0,0,0,0h-18c-0.4,0-0.7-0.3-0.7-0.7c0,0,0,0,0,0l0,0
			c0-0.4,0.3-0.7,0.7-0.7c0,0,0,0,0,0h18C191.1,198.9,191.4,199.2,191.4,199.6C191.4,199.6,191.4,199.6,191.4,199.6z"/>
		<path class="st0" d="M172.6,229.1L172.6,229.1c0,0.4-0.3,0.7-0.7,0.7c0,0,0,0,0,0h-21c-0.4,0-0.7-0.3-0.7-0.7c0,0,0,0,0,0l0,0
			c0-0.4,0.3-0.7,0.7-0.7c0,0,0,0,0,0h21C172.3,228.4,172.6,228.7,172.6,229.1C172.6,229.1,172.6,229.1,172.6,229.1z"/>
		<path class="st0" d="M196.2,239.6L196.2,239.6c0,0.4-0.3,0.7-0.7,0.7c0,0,0,0,0,0h-53c-0.4,0-0.7-0.3-0.7-0.7c0,0,0,0,0,0l0,0
			c0-0.4,0.3-0.7,0.7-0.7c0,0,0,0,0,0h53C195.9,238.9,196.2,239.2,196.2,239.6z"/>
		<path class="st0" d="M200.8,248L200.8,248c0,0.4-0.3,0.7-0.7,0.7c0,0,0,0,0,0h-63.4c-0.4,0-0.7-0.3-0.7-0.7c0,0,0,0,0,0l0,0
			c0-0.4,0.3-0.7,0.7-0.7c0,0,0,0,0,0h63.4C200.5,247.3,200.8,247.6,200.8,248C200.8,248,200.8,248,200.8,248z"/>
		<path class="st0" d="M135.6,248.5L135.6,248.5c-0.3-0.2-0.4-0.6-0.2-0.9c0,0,0,0,0.1-0.1l36.5-48.2c0.2-0.3,0.6-0.4,0.9-0.2
			c0,0,0,0,0.1,0.1l0,0c0.3,0.2,0.4,0.6,0.2,0.9c0,0,0,0-0.1,0.1l-36.4,48.1C136.5,248.6,136,248.7,135.6,248.5z"/>
		<path class="st0" d="M136.1,333L136.1,333c-0.4,0-0.7-0.3-0.7-0.7c0,0,0,0,0,0V248c0-0.4,0.3-0.7,0.7-0.7c0,0,0,0,0,0l0,0
			c0.4,0,0.7,0.3,0.7,0.7c0,0,0,0,0,0v84.3C136.8,332.7,136.5,333,136.1,333C136.1,333,136.1,333,136.1,333z"/>
		<circle class="st0" cx="159.9" cy="199.6" r="3.4"/>
		<circle class="st0" cx="172.6" cy="199.6" r="3.4"/>
		<circle class="st0" cx="172.6" cy="214.1" r="3.4"/>
		<circle class="st0" cx="190.9" cy="214.1" r="3.4"/>
		<circle class="st0" cx="199.7" cy="214.1" r="3.4"/>
		<circle class="st0" cx="172.6" cy="229.1" r="3.4"/>
		<circle class="st0" cx="211.2" cy="233.4" r="3.4"/>
		<circle class="st0" cx="206.3" cy="225.2" r="3.4"/>
		<circle class="st0" cx="124.1" cy="172.1" r="3.4"/>
		<circle class="st0" cx="130.4" cy="157.5" r="3.4"/>
		<circle class="st0" cx="125" cy="115.2" r="3.4"/>
		<circle class="st0" cx="130.4" cy="122.6" r="3.4"/>
		<circle class="st0" cx="135.3" cy="131.2" r="3.4"/>
		<circle class="st0" cx="148.9" cy="182.1" r="3.4"/>
		<circle class="st0" cx="172.8" cy="167.1" r="3.4"/>
		<circle class="st0" cx="196.5" cy="191.9" r="3.4"/>
		<circle class="st0" cx="184.7" cy="191.9" r="3.4"/>
		<circle class="st0" cx="184.9" cy="164.9" r="3.4"/>
		<circle class="st0" cx="159.9" cy="145.9" r="3.4"/>
		<circle class="st0" cx="143.6" cy="145.9" r="3.4"/>
		<circle class="st0" cx="136.1" cy="182.2" r="3.4"/>
		<path class="st0" d="M100.9,274v52.3c-0.1,2.4-1,4.6-2.7,6.3l-0.1,0.1c-0.1,0.2-0.3,0.3-0.5,0.4l-0.8,0.8
			c-1.8,1.6-2.7,3.8-2.6,6.2v11.8c0,2.1,0.8,4.2,2.2,5.8c0.1,0.1,0.1,0.1,0.1,0.2h22.6V242.5c0-0.8-0.5-1.6-1.3-1.9
			c-2.8-1.2-6.9-1.9-13-0.5c-1,0.2-2,0.5-3.1,0.8c-0.5,0.2-0.9,0.7-0.9,1.3c0,0.7-0.6,1.3-1.3,1.3H51.6c-1.2,0-2.1,0.9-2.1,2.1v12
			c0,1.2,0.9,2.1,2.1,2.1h35C94.5,259.7,100.9,266.1,100.9,274C100.9,274,100.9,274,100.9,274z"/>
	</g>
	<g>
		<path class="st0" d="M197.2,332.3h3.1l10.9,25.5h-4l-2.6-6.3h-12.2l-2.5,6.3h-4L197.2,332.3z M203.4,348.5l-4.8-11.7h-0.1
			l-4.8,11.7H203.4z"/>
		<path class="st0" d="M215.4,332.3h3.6l5.6,20.4h0.1l6-20.4h4l6,20.4h0.1l5.6-20.4h3.6l-7.4,25.5h-3.7l-6.2-20.8h-0.1l-6.1,20.8
			h-3.7L215.4,332.3z"/>
		<path class="st0" d="M265.4,332.3h3.1l10.9,25.5h-4l-2.6-6.3h-12.2l-2.5,6.3h-4L265.4,332.3z M271.6,348.5l-4.8-11.7h-0.1
			l-4.8,11.7H271.6z"/>
		<path class="st0" d="M314,357.8h-14.7c-1.8,0-3.5-0.3-5.1-1c-1.6-0.6-3-1.5-4.2-2.7c-1.2-1.2-2.2-2.6-2.8-4.1
			c-0.7-1.7-1.1-3.4-1-5.2c0-1.8,0.3-3.6,1-5.2c1.3-3.2,3.8-5.6,7-6.9c1.6-0.7,3.4-1,5.2-1c3.4,0,6.7,1.3,9.2,3.6
			c2.5,2.4,3.8,5.7,3.8,9.1c0,1.1-0.1,2.1-0.4,3.2c-0.2,1-0.6,2-1.1,2.9c-0.5,0.9-1.1,1.8-1.8,2.5c-0.7,0.7-1.6,1.3-2.5,1.7v0.1h7.5
			V357.8z M299.2,354.6c1.3,0,2.6-0.2,3.8-0.8c1.1-0.5,2.2-1.2,3-2.1c0.8-0.9,1.5-2,1.9-3.2c0.5-1.3,0.7-2.6,0.7-3.9
			c0-1.3-0.2-2.6-0.7-3.8c-0.5-1.1-1.1-2.2-2-3.1c-0.9-0.9-1.9-1.6-3-2c-1.2-0.5-2.5-0.8-3.8-0.8c-1.3,0-2.5,0.2-3.7,0.8
			c-3.5,1.6-5.7,5-5.7,8.8c0,1.3,0.2,2.7,0.7,3.9c0.4,1.2,1.1,2.3,1.9,3.2C294.1,353.5,296.6,354.6,299.2,354.6L299.2,354.6z"/>
		<path class="st0" d="M337.6,332.3h8.9c1,0,2.1,0.1,3.1,0.4c0.9,0.2,1.7,0.6,2.5,1.2c0.7,0.5,1.2,1.2,1.6,2
			c0.4,0.9,0.6,1.9,0.6,2.8c0.1,1.3-0.4,2.6-1.2,3.6c-0.9,0.9-2,1.6-3.2,2v0.1c0.8,0,1.5,0.2,2.2,0.6c0.7,0.3,1.3,0.8,1.7,1.4
			c0.5,0.6,0.9,1.3,1.2,2c0.3,0.8,0.4,1.6,0.4,2.4c0,1-0.2,2.1-0.7,3c-0.5,0.9-1.1,1.6-1.9,2.2c-0.9,0.6-1.8,1.1-2.9,1.4
			c-1.1,0.3-2.3,0.5-3.5,0.5h-8.8L337.6,332.3z M341.1,342.9h4.7c0.6,0,1.2-0.1,1.8-0.2c0.5-0.1,1.1-0.3,1.5-0.7
			c0.4-0.3,0.8-0.7,1-1.2c0.3-0.6,0.4-1.2,0.4-1.8c0-1-0.4-1.9-1-2.6c-0.8-0.8-1.9-1.2-3.1-1.1H341L341.1,342.9z M341.1,354.8h5.1
			c0.6,0,1.2-0.1,1.7-0.2c0.6-0.1,1.2-0.3,1.8-0.6c0.6-0.3,1-0.8,1.4-1.3c0.4-0.7,0.6-1.4,0.6-2.2c0.1-1.3-0.5-2.6-1.5-3.4
			c-1.2-0.8-2.6-1.2-4-1.1h-5.1V354.8z"/>
		<path class="st0" d="M365.2,332.3h3.5v25.5h-3.5V332.3z"/>
		<path class="st0" d="M391.9,358.5c-1.8,0-3.7-0.3-5.4-1c-1.6-0.6-3-1.6-4.2-2.8c-1.2-1.2-2.1-2.7-2.7-4.2c-1.3-3.4-1.3-7.2,0-10.6
			c0.6-1.6,1.6-3,2.7-4.2c1.2-1.2,2.6-2.2,4.2-2.8c3.4-1.4,7.3-1.4,10.7,0c1.6,0.7,3,1.6,4.2,2.8c1.2,1.2,2.1,2.7,2.7,4.2
			c1.3,3.4,1.3,7.2,0,10.6c-0.6,1.6-1.6,3-2.7,4.2c-1.2,1.2-2.6,2.2-4.2,2.8C395.6,358.2,393.8,358.5,391.9,358.5z M391.9,355.2
			c2.7,0.1,5.2-1,7-3c0.9-0.9,1.6-2,2-3.2c0.9-2.5,0.9-5.3,0-7.9c-0.4-1.2-1.1-2.3-2-3.2c-1.8-2-4.3-3-7-3c-2.7,0-5.2,1-7,3
			c-0.9,0.9-1.5,2-1.9,3.2c-0.9,2.5-0.9,5.3,0,7.9c0.4,1.2,1.1,2.3,1.9,3.2C386.7,354.2,389.3,355.3,391.9,355.2z"/>
		<path class="st0" d="M422,350.6h-8.9v-3h8.9V350.6z"/>
		<path class="st0" d="M436.8,335.6h-8.2v-3.2h19.9v3.2h-8.2v22.2h-3.5V335.6z"/>
		<path class="st0" d="M457.1,332.3h16.5v3.2h-13v7.6h12.1v3.2h-12.1v8.2h13.6v3.2h-17.1L457.1,332.3z"/>
		<path class="st0" d="M501.8,337.8c-0.7-0.9-1.7-1.7-2.7-2.2c-1.1-0.5-2.2-0.7-3.4-0.8c-1.3,0-2.7,0.3-3.9,0.8
			c-1.1,0.5-2.2,1.3-3,2.2c-0.8,1-1.5,2.1-1.9,3.3c-0.5,1.3-0.7,2.6-0.7,4c0,1.3,0.2,2.6,0.6,3.8c0.4,1.2,1,2.2,1.9,3.2
			c0.8,0.9,1.9,1.7,3,2.2c1.3,0.5,2.6,0.8,4,0.8c1.3,0,2.7-0.3,3.9-0.9c1.1-0.6,2.1-1.5,2.8-2.5l2.9,2.2c-0.3,0.4-0.6,0.8-1,1.1
			c-0.6,0.6-1.2,1.1-1.9,1.5c-0.9,0.5-1.9,1-2.9,1.3c-1.3,0.4-2.6,0.6-3.9,0.6c-1.9,0-3.7-0.4-5.5-1.1c-1.6-0.7-3-1.7-4.1-3
			c-1.1-1.2-2-2.7-2.6-4.2c-0.6-1.5-0.9-3.1-0.9-4.8c0-1.9,0.3-3.7,1-5.5c0.6-1.6,1.5-3.1,2.7-4.3c1.2-1.2,2.6-2.2,4.2-2.8
			c1.7-0.7,3.6-1,5.4-1c1.7,0,3.4,0.3,5,1c1.6,0.6,3,1.6,4,3L501.8,337.8z"/>
		<path class="st0" d="M514.4,332.3h3.5v10.6h13.2v-10.6h3.5v25.5h-3.5v-11.7h-13.2v11.7h-3.5V332.3z"/>
	</g>
</g>
</svg>
